<svg xmlns="http://www.w3.org/2000/svg" viewBox="0 0 265 265">
    <polygon class="surface" points="160.21 93.5 116.18 93.5 85.05 124.63 85.05 168.66 116.18 199.79 132.95 199.79 132.95 259.83 139.95 259.83 139.95 199.79 160.21 199.79 191.34 168.66 191.34 124.63 160.21 93.5"/>
    <path class="bubbles" d="M68.8,38.6a4.46,4.46,0,0,1-4.4-4.5,4.53,4.53,0,0,1,4.5-4.4,4.45,4.45,0,1,1-.1,8.9ZM130.6,1a2.26,2.26,0,0,0-2.3,2.3,2.3,2.3,0,0,0,4.6,0A2.26,2.26,0,0,0,130.6,1ZM54.8,138.6a2.3,2.3,0,1,0,2.3,2.3A2.26,2.26,0,0,0,54.8,138.6Zm56.7-94.4a2.3,2.3,0,1,0-4.6,0,2.2,2.2,0,0,0,2.3,2.3A2.26,2.26,0,0,0,111.5,44.2Zm-39,25.6a2.35,2.35,0,1,0,2.3,2.4A2.23,2.23,0,0,0,72.5,69.8ZM69,105.4a2.3,2.3,0,1,0,2.3,2.3A2.33,2.33,0,0,0,69,105.4ZM30.59,65a2.35,2.35,0,0,0,2.4-2.3,2.23,2.23,0,0,0-2.3-2.4,2.35,2.35,0,1,0-.1,4.7ZM45.2,8a2.35,2.35,0,1,0,2.3,2.4A2.23,2.23,0,0,0,45.2,8Zm-16,92.37a4.45,4.45,0,1,0-4.4-4.5A4.34,4.34,0,0,0,29.2,100.4Zm0,69.5a5.91,5.91,0,0,0-5.9,5.9,5.9,5.9,0,0,0,11.8,0A6,6,0,0,0,29.2,169.9ZM7.7,134.6a2.3,2.3,0,1,0,2.3,2.3A2.26,2.26,0,0,0,7.7,134.6ZM114.8,65.42a4.7,4.7,0,1,0,4.7,4.7A4.69,4.69,0,0,0,114.8,65.42ZM239.5,164a5.9,5.9,0,1,0,5.8,5.9A5.83,5.83,0,0,0,239.5,164Zm-14.72-61.17a4.8,4.8,0,0,0-4.8,4.8,4.8,4.8,0,0,0,9.6,0A4.8,4.8,0,0,0,224.78,102.83ZM257.3,74.5a2.3,2.3,0,1,0,2.3,2.3A2.26,2.26,0,0,0,257.3,74.5Zm-2.63,49.76a2.3,2.3,0,1,0,2.3,2.3A2.26,2.26,0,0,0,254.67,124.26Zm-5.56-92.44a2.3,2.3,0,1,0,2.3,2.3A2.26,2.26,0,0,0,249.11,31.82Zm-27,106.58a2.3,2.3,0,1,0,2.3,2.3A2.2,2.2,0,0,0,222.1,138.4ZM158.8,74.5a2.3,2.3,0,1,0,2.3,2.3A2.33,2.33,0,0,0,158.8,74.5Zm52.31-60.73a2.35,2.35,0,1,0,2.3,2.4A2.23,2.23,0,0,0,211.11,13.77ZM165.7,12.1a4.1,4.1,0,1,0,4.1,4.1A4.12,4.12,0,0,0,165.7,12.1Zm-7.6,33a2.33,2.33,0,0,0-2.3-2.3,2.3,2.3,0,1,0,2.3,2.3Zm46,0a4.7,4.7,0,1,0,4.7,4.7A4.69,4.69,0,0,0,204.1,45.1Zm.38,34.58a2.3,2.3,0,1,0,2.3,2.3A2.33,2.33,0,0,0,204.48,79.68Z" transform="translate(0 -1)"/>
    <path class="outline" d="M144.37,125.34h-7.5V122h-9v6.67h-7.5v14.76h-6.9l-.34,20.28L124,181.85h24.41l3.43-25.75V134.72h-7.5Zm6,10.88V156l-3.25,24.35H124.87l-10.24-17,.32-18.38h5.4v12.35h1.52V130.18h6v22.34h1.5v-29h6v30.21h1.5V126.84h6V156.1h1.5V136.22ZM137.25,263.71V205.82h17.57l31.57-31.57V129.61L154.82,98H110.18L78.61,129.61v44.64l31.57,31.57h17.57v57.89H0v1.5H265v-1.5ZM97.93,191.46,114.7,174.7l-1.06-1.06L96.87,190.4,94.46,188l16.76-16.76-1.06-1.06L93.4,186.92,80.11,173.63v-43.4L110.8,99.54h43.4l13.41,13.4-15.34,15.33,1.06,1.06L168.67,114l2.41,2.42-15.33,15.33,1.06,1.06,15.33-15.33,12.75,12.75v43.4L154.2,204.32H110.8Zm31.32,72.25V205.82h6.5v57.89Z" transform="translate(0 -1)"/>
</svg>
