<?xml version="1.0" encoding="utf-8"?>
<!-- Generator: Adobe Illustrator 26.0.3, SVG Export Plug-In . SVG Version: 6.00 Build 0)  -->
<svg version="1.1" id="placeholder" xmlns="http://www.w3.org/2000/svg" xmlns:xlink="http://www.w3.org/1999/xlink" x="0px"
	 y="0px" viewBox="0 0 612.4 612.7" style="enable-background:new 0 0 612.4 612.7;" xml:space="preserve">
<style type="text/css">
	.st0{fill:#EDEDED;}
</style>
<path id="img" class="st0" d="M306.1,3C138.8,3,2.7,139.1,2.7,306.4c0,167.3,136.1,303.4,303.4,303.4s303.4-136.1,303.4-303.4
	C609.4,139.1,473.3,3,306.1,3z M106,448.5c-29.9-41.9-45.7-91.1-45.7-142.2c0-135.5,110.2-245.7,245.7-245.7
	c51.1,0,100.3,15.8,142.2,45.6l10,7.1L113.1,458.5L106,448.5z M306.1,552.1c-51.1,0-100.2-15.8-142.2-45.6l-10-7.1L499,154.2l7.1,10
	c29.9,42,45.7,91.1,45.7,142.2C551.8,441.8,441.6,552.1,306.1,552.1z M241.5,205.3c-5.4,8.2-14.6,13.1-24.4,13.1h-86.9v193.7
	L257.2,285c6.5-11.5,16-21,27.5-27.5l83.1-83.1H262.1L241.5,205.3z M188.8,291.7c-8.1,0-14.7-6.6-14.7-14.7
	c0-8.1,6.6-14.7,14.7-14.7s14.7,6.6,14.7,14.7C203.4,285.1,196.9,291.7,188.8,291.7z M364.7,321c0-1-0.2-1.9-0.3-2.8l-46.5,46.5
	c1,0.1,1.9,0.3,2.8,0.3C345,365,364.7,345.3,364.7,321z M203.4,189.1h-44v14.7h44V189.1z M388.7,293.9c3.4,8.4,5.3,17.5,5.3,27.1
	c0,40.5-32.8,73.3-73.3,73.3c-9.6,0-18.7-2-27.1-5.3l-49.3,49.3H482V218.4h-17.8L388.7,293.9z"/>
</svg>
